<?xml version="1.0" standalone="no"?>
<!DOCTYPE svg PUBLIC "-//W3C//DTD SVG 20010904//EN"
 "http://www.w3.org/TR/2001/REC-SVG-20010904/DTD/svg10.dtd">
<svg version="1.0" xmlns="http://www.w3.org/2000/svg"
 width="859.000000pt" height="442.000000pt" viewBox="0 0 859.000000 442.000000"
 preserveAspectRatio="xMidYMid meet">
<metadata>
Created by potrace 1.16, written by Peter Selinger 2001-2019
</metadata>
<g transform="translate(0.000000,442.000000) scale(0.100000,-0.100000)"
fill="#000000" stroke="none">
<path d="M5397 4403 c-11 -3 -16 -11 -13 -21 12 -41 48 -313 43 -326 -3 -7
-44 -34 -91 -60 -60 -33 -86 -53 -88 -68 -2 -16 -40 -41 -150 -101 -97 -53
-148 -87 -148 -97 0 -13 28 -109 35 -117 1 -2 68 20 150 47 82 28 150 50 151
50 1 0 9 -21 18 -47 13 -38 14 -49 4 -59 -7 -6 -147 -93 -310 -193 -253 -155
-301 -188 -319 -221 -12 -21 -47 -56 -78 -77 -31 -21 -165 -116 -298 -211
-232 -165 -243 -172 -290 -172 -27 0 -99 -16 -163 -35 -456 -141 -664 -195
-751 -195 -137 0 -284 80 -416 228 -43 47 -109 118 -148 158 l-70 71 -110 7
c-60 4 -278 5 -483 2 l-373 -4 -40 -28 c-23 -15 -58 -48 -78 -71 -32 -38 -59
-53 -210 -118 -221 -96 -337 -156 -385 -200 -21 -19 -41 -35 -44 -35 -5 0
-141 78 -152 87 -2 2 -5 34 -5 71 l-1 67 -45 -3 c-24 -2 -45 -5 -45 -5 -1 -1
-4 -91 -6 -199 -2 -109 -6 -200 -9 -202 -3 -3 -21 -8 -40 -11 -52 -7 -286 -35
-298 -35 -7 0 -11 -46 -11 -139 0 -160 -6 -151 101 -151 38 0 69 -2 69 -5 0
-25 -206 -462 -258 -547 -40 -65 -41 -68 -22 -78 26 -14 164 -30 261 -30 75 0
77 1 124 42 l47 42 -5 -45 c-16 -120 -19 -320 -8 -399 66 -451 410 -815 871
-922 112 -25 335 -32 445 -12 318 56 597 235 767 491 56 83 68 87 163 62 62
-16 168 -18 1264 -24 1063 -6 1204 -5 1269 9 40 8 88 22 105 31 41 21 141 35
250 35 l87 0 1 50 c1 28 3 55 4 60 1 6 3 17 4 25 0 9 19 19 46 26 64 16 69 26
62 119 -7 82 -28 140 -65 174 -20 17 -24 17 -69 2 -73 -23 -255 -68 -260 -63
-2 2 48 52 110 111 l114 106 54 0 54 0 83 83 82 82 -33 47 -34 47 18 138 c10
76 23 203 29 283 21 294 63 510 120 627 33 66 79 113 112 113 38 0 178 -119
178 -151 0 -6 19 -58 41 -115 l41 -103 -22 -173 c-14 -107 -21 -200 -18 -246
5 -73 5 -75 -64 -235 -97 -228 -114 -278 -132 -397 -15 -95 -19 -107 -47 -132
-19 -16 -29 -33 -27 -44 4 -24 101 -82 147 -89 80 -13 78 -12 85 -60 4 -25 20
-82 35 -127 59 -174 144 -310 276 -443 227 -229 506 -345 830 -346 313 0 588
110 814 325 400 383 469 1022 160 1478 -64 94 -148 187 -176 194 -31 8 -12 24
30 24 15 0 27 4 27 10 0 16 -139 109 -240 160 -323 162 -721 192 -1140 86 -27
-7 2 -54 -364 578 l-87 149 56 -7 c31 -3 96 -9 145 -13 l90 -6 30 66 c60 134
83 231 84 362 1 109 -1 124 -24 169 -29 58 -64 76 -142 76 -165 -1 -299 -89
-398 -262 -25 -43 -47 -78 -50 -78 -3 0 -48 51 -99 113 l-93 112 -138 320
-138 320 -53 0 c-59 0 -56 -5 -58 80 l-1 50 -77 0 -78 0 -25 47 c-24 46 -33
51 -73 41z m263 -828 c69 -8 127 -15 129 -15 2 0 1 -26 -3 -57 -3 -32 -6 -107
-7 -168 -1 -60 -4 -118 -8 -128 -5 -13 -39 27 -142 170 -75 103 -139 194 -143
201 -9 16 18 16 174 -3z m-102 -239 c34 -18 150 -138 185 -191 49 -76 76 -248
57 -357 -19 -103 -52 -162 -121 -213 -69 -51 -62 -48 -199 -74 -141 -26 -220
-35 -220 -25 0 5 75 21 168 37 156 25 171 30 222 65 127 87 165 242 114 463
-18 78 -88 177 -173 247 -47 38 -57 42 -106 42 -30 0 -57 -5 -61 -11 -3 -6
-27 -21 -53 -32 -37 -17 -64 -20 -145 -19 -85 2 -115 -3 -220 -33 -108 -30
-196 -59 -248 -80 -10 -4 -18 -3 -18 3 0 17 123 61 316 112 59 16 101 20 150
17 87 -5 150 7 194 38 40 29 114 34 158 11z m-3833 -552 c237 -34 415 -104
510 -201 51 -51 59 -55 122 -66 38 -6 70 -14 73 -18 3 -4 83 -102 178 -217
122 -148 182 -214 203 -221 17 -6 67 -16 112 -22 80 -11 86 -10 222 25 157 41
196 59 377 170 70 43 132 76 139 74 12 -4 -285 -188 -344 -213 -19 -8 -97 -30
-172 -50 -133 -34 -140 -35 -223 -25 -137 17 -140 20 -333 255 l-172 210 -68
12 c-64 11 -71 15 -126 71 -99 101 -293 173 -538 202 -55 6 -116 13 -135 15
-19 2 -52 4 -73 5 -25 0 -36 4 -31 11 7 13 123 6 279 -17z m4754 -339 c102
-155 162 -257 175 -301 5 -17 -17 -40 -129 -138 l-135 -117 0 35 c0 20 7 109
16 198 8 90 12 183 9 208 -4 25 -24 74 -45 110 -45 75 -60 112 -60 145 0 21 4
24 32 22 29 -2 40 -14 137 -162z m-1336 23 c72 -11 78 -13 73 -32 -3 -12 -6
-33 -6 -47 l0 -26 -85 20 c-75 19 -85 24 -85 43 0 12 -3 29 -6 38 -8 20 5 20
109 4z m-2983 -47 c0 -5 -226 -12 -507 -15 -280 -4 -539 -7 -578 -8 -97 -1
-117 1 -111 11 3 5 164 9 358 10 194 1 354 4 357 7 9 8 481 4 481 -5z m2770
-15 c36 -8 91 -26 123 -41 98 -47 205 -158 194 -202 -3 -13 -9 -8 -21 20 -38
87 -160 172 -288 202 -80 19 -225 19 -304 0 -153 -36 -275 -129 -300 -229 -3
-14 -10 -26 -15 -26 -30 0 19 99 78 155 54 52 143 98 229 119 76 19 222 19
304 2z m-2532 -129 c13 -6 33 -29 44 -52 12 -22 61 -102 111 -178 49 -76 87
-141 83 -144 -3 -4 -8 -4 -10 -2 -8 9 -174 267 -200 312 -26 44 -38 52 -92 62
-10 2 -325 5 -699 7 l-680 3 690 5 c380 3 699 4 710 2 11 -2 31 -8 43 -15z
m-523 -88 c101 -11 189 -53 300 -143 97 -78 239 -215 232 -223 -3 -3 -50 36
-105 86 -121 113 -231 197 -298 227 -69 33 -171 42 -439 42 -290 0 -333 -6
-432 -54 -190 -94 -383 -280 -518 -500 -59 -96 -54 -89 -62 -81 -3 4 15 42 42
84 182 296 474 538 680 563 83 10 502 9 600 -1z m1615 -98 c0 -5 -101 -52
-224 -106 l-223 -97 48 -166 c45 -151 58 -215 43 -199 -10 9 -113 371 -108
376 6 6 446 199 457 200 4 1 7 -3 7 -8z m1770 -33 c0 -32 -51 -117 -93 -155
-93 -85 -213 -126 -377 -127 -162 -1 -287 40 -384 125 -39 34 -86 102 -86 124
0 17 19 1 30 -25 22 -54 120 -134 199 -163 175 -65 357 -59 509 16 77 39 155
118 173 176 11 39 29 56 29 29z m2840 -36 c0 -5 -89 -12 -197 -16 -109 -4
-227 -9 -263 -11 -36 -3 -126 -7 -200 -11 -74 -3 -149 -12 -166 -19 -35 -15
-60 -59 -74 -136 -19 -98 -19 -99 135 -355 153 -255 164 -285 125 -324 -23
-23 -70 -26 -112 -7 -15 7 -81 83 -154 177 -268 347 -258 339 -396 347 -91 5
-94 4 -141 -26 -86 -56 -133 -155 -177 -375 -31 -154 -45 -177 -127 -217 -70
-34 -73 -16 -4 21 35 19 69 43 76 54 7 12 21 66 30 121 42 240 109 371 219
427 35 18 52 20 127 15 48 -3 100 -12 116 -21 51 -26 103 -87 341 -397 47 -62
91 -109 104 -113 37 -9 73 -7 86 6 29 29 11 70 -134 311 l-146 241 6 67 c11
121 47 189 110 208 33 10 144 17 426 27 96 4 176 8 178 9 9 8 212 4 212 -3z
m-6365 -97 c104 -26 238 -100 320 -177 81 -76 149 -161 143 -180 -2 -6 -15 4
-28 23 -82 117 -184 206 -303 264 -279 136 -609 79 -834 -143 -50 -49 -134
-162 -147 -197 -2 -5 -6 -7 -10 -3 -20 17 76 151 170 237 108 99 241 164 391
191 65 12 224 4 298 -15z m5889 -10 c206 -56 369 -171 479 -338 104 -158 141
-290 134 -477 -5 -143 -25 -219 -89 -342 -201 -388 -692 -548 -1085 -353 -210
104 -349 263 -424 485 -30 89 -33 104 -33 235 0 105 4 156 18 205 22 81 81
210 95 210 15 0 14 -4 -9 -43 -30 -50 -67 -165 -81 -252 -62 -384 189 -766
577 -877 113 -32 315 -32 427 0 293 84 512 313 572 600 19 89 19 246 -1 335
-8 40 -38 119 -67 177 -44 91 -63 117 -142 196 -163 164 -351 244 -576 244
-52 0 -79 4 -79 11 0 17 209 5 284 -16z m-3481 -97 c9 -7 48 -58 87 -113 81
-117 84 -112 -63 -114 -62 -1 -89 3 -92 12 -2 6 -6 60 -10 120 l-6 107 33 0
c19 0 42 -6 51 -12z m1345 -23 c3 -2 -42 -84 -99 -182 l-104 -178 -41 -3 c-36
-3 -42 0 -48 20 -12 45 -5 59 96 208 l103 151 45 -6 c24 -3 46 -8 48 -10z
m-1528 -26 c0 -11 -7 -52 -16 -92 -13 -55 -24 -79 -49 -104 -35 -35 -62 -42
-71 -20 -4 11 69 175 100 225 12 20 36 13 36 -9z m-2251 -15 c92 -26 179 -75
244 -136 42 -38 56 -57 45 -58 -10 0 -18 4 -18 9 0 13 -110 96 -165 124 -90
45 -161 61 -270 60 -167 -1 -288 -54 -413 -180 -80 -81 -107 -91 -47 -19 91
111 240 196 379 216 71 9 181 2 245 -16z m3888 -63 c-3 -11 -94 -175 -202
-366 -153 -268 -210 -359 -254 -405 -39 -42 -64 -60 -81 -60 -25 0 -25 0 5 19
42 26 106 96 142 156 29 47 250 436 316 555 64 117 86 147 74 101z m-3098
-189 l86 -27 550 0 c396 0 559 4 582 12 43 16 52 -1 10 -18 -25 -10 -153 -14
-577 -16 l-545 -2 -95 29 -95 29 -235 -14 c-129 -8 -278 -17 -330 -20 -52 -3
-126 -8 -165 -10 -38 -2 -113 -7 -165 -10 -52 -3 -207 -12 -345 -20 -137 -9
-297 -18 -355 -21 -140 -7 -146 -9 -146 -36 1 -39 -17 -35 -20 5 -3 29 0 37
14 38 9 0 31 2 47 4 17 2 113 8 215 14 102 6 217 13 255 16 39 2 113 7 165 10
52 3 129 7 170 10 41 3 118 7 170 10 52 3 120 7 150 10 30 2 114 7 185 11 158
8 328 18 362 21 14 2 64 -9 112 -25z m1388 -65 c-35 -60 -108 -124 -154 -136
-45 -11 -366 -31 -508 -31 -128 0 -108 17 24 19 53 1 121 4 151 6 30 2 109 7
175 10 66 3 136 10 156 16 44 11 107 70 145 135 15 26 30 42 32 36 2 -7 -8
-32 -21 -55z m3606 27 c64 -22 140 -92 174 -162 25 -50 28 -68 28 -152 0 -84
-3 -102 -28 -152 -16 -33 -49 -76 -78 -102 -190 -170 -478 -40 -497 225 -5 67
12 164 30 175 17 11 17 -1 2 -46 -22 -63 -14 -180 16 -243 50 -105 145 -167
255 -167 110 0 196 56 252 162 25 47 28 63 28 148 0 84 -3 101 -27 145 -46 84
-102 134 -175 156 -24 7 -43 16 -43 21 0 11 10 10 63 -8z m-2357 -89 c-11 -52
-24 -95 -28 -95 -11 0 -9 27 7 95 8 33 15 65 15 70 0 6 -106 3 -297 -10 l-298
-20 2 -30 c4 -85 4 -327 -1 -332 -11 -11 -16 46 -18 210 -3 161 -2 168 17 172
20 4 108 10 330 21 66 4 122 8 124 10 2 2 41 4 86 4 l82 0 -21 -95z m-2058
-210 c-1 -60 -7 -106 -13 -108 -5 -2 -35 -4 -65 -3 l-55 1 1 35 c1 19 7 68 13
108 l13 72 55 0 54 0 -3 -105z m-2398 80 c0 -17 125 -16 1085 0 793 14 1119
15 1105 7 -8 -6 -217 -12 -475 -16 -253 -3 -559 -8 -680 -11 -121 -3 -408 -8
-637 -11 l-418 -6 0 26 c0 14 5 26 10 26 6 0 10 -7 10 -15z m2125 -156 c41
-18 75 -35 75 -40 0 -9 -37 1 -94 26 -32 14 -71 16 -225 15 -102 0 -235 -3
-296 -5 -60 -2 -240 -7 -400 -10 -159 -3 -417 -8 -572 -12 -188 -4 -283 -3
-283 4 0 7 139 13 388 18 213 4 419 9 457 10 39 1 248 6 465 10 217 4 397 9
399 11 7 6 7 6 86 -27z m-2013 9 c2 -7 6 -33 7 -57 2 -25 11 -79 22 -120 74
-295 326 -533 614 -580 78 -13 215 -6 290 14 68 18 185 71 242 109 61 42 161
146 206 214 23 34 45 62 49 62 13 0 -20 -59 -68 -121 -253 -330 -706 -402
-1037 -165 -191 136 -321 367 -340 604 -3 48 5 70 15 40z m2603 -109 l140 -81
680 7 c423 4 674 2 665 -3 -9 -6 -299 -13 -680 -17 l-665 -7 -143 81 c-103 59
-152 81 -177 81 -19 0 -35 5 -35 10 0 6 17 10 38 10 28 0 70 -19 177 -81z
m-2444 -16 c1 -37 9 -107 13 -110 2 -2 221 -6 487 -8 266 -3 662 -7 879 -10
l395 -5 70 26 c63 23 89 26 260 31 l190 6 140 -93 140 -93 325 7 c419 8 704
16 757 21 41 3 67 -8 40 -18 -6 -2 -77 -5 -157 -6 -80 -1 -165 -4 -190 -6 -25
-1 -210 -6 -413 -10 l-367 -8 -140 93 -139 92 -118 -1 c-180 -2 -263 -11 -317
-33 -46 -18 -70 -20 -440 -19 -215 0 -624 4 -908 7 -517 7 -518 7 -518 28 -1
12 -3 47 -6 79 -4 38 -2 57 5 57 6 0 11 -12 12 -27z m4759 -2 c0 -5 -15 -14
-32 -20 -18 -5 -106 -33 -196 -61 -143 -45 -185 -54 -340 -70 -97 -11 -223
-24 -280 -31 -91 -10 -125 -8 -111 5 2 2 132 18 289 35 284 31 286 32 470 91
202 65 200 64 200 51z m-64 -169 c-3 -5 -77 -22 -165 -37 l-161 -29 -6 -48 -7
-48 -57 0 c-56 0 -59 1 -72 31 l-13 31 -155 -6 c-85 -4 -178 -9 -206 -12 -33
-4 -54 -2 -58 5 -5 7 6 11 31 12 21 0 45 2 53 4 8 1 90 6 181 10 l166 7 13
-31 c11 -28 17 -31 55 -31 45 0 55 12 55 68 0 12 1 22 3 23 1 0 67 13 147 29
154 30 204 35 196 22z m-4588 -61 c47 -72 151 -164 231 -204 196 -98 414 -84
594 40 62 41 148 130 176 180 5 10 13 15 16 11 22 -22 -120 -172 -217 -231
-126 -76 -284 -103 -422 -73 -96 22 -215 81 -284 141 -46 41 -142 162 -142
179 0 18 20 0 48 -43z"/>
</g>
</svg>
